<svg width="60" height="60" xmlns="http://www.w3.org/2000/svg" style="user-select: auto;">
 <title style="user-select: auto;"/>
 <desc style="user-select: auto;"/>

 <g>
  <title>background</title>
  <rect fill="none" id="canvas_background" height="402" width="582" y="-1" x="-1"/>
 </g>
 <g>
  <title>Layer 1</title>
  <path style="user-select: auto;" fill="#ffffff" id="Pinterest" d="m32.75945,39.0844c6.60561,0 11.0867,-6.14735 11.0867,-14.37609c0,-6.22041 -5.16285,-12.016 -13.00742,-12.016c-9.76234,0 -14.68488,7.1452 -14.68488,13.10344c0,3.60778 1.33702,6.8175 4.20779,8.01378c0.47032,0.19602 0.89175,0.00631 1.02869,-0.52493c0.09365,-0.3683 0.32012,-1.2973 0.41848,-1.68363c0.13783,-0.52614 0.08482,-0.71043 -0.29509,-1.16922c-0.82695,-0.99755 -1.35469,-2.28643 -1.35469,-4.11407c0,-5.30043 3.88297,-10.04556 10.11574,-10.04556c5.51625,0 8.5493,3.44092 8.5493,8.03843c0,6.04784 -2.62163,11.15224 -6.51461,11.15224c-2.15043,0 -3.7581,-1.81471 -3.24332,-4.04011c0.61639,-2.65712 1.81441,-5.52591 1.81441,-7.44404c0,-1.7161 -0.90264,-3.14929 -2.77153,-3.14929c-2.19784,0 -3.96277,2.3216 -3.96277,5.43c0,1.97977 0.65644,3.31916 0.65644,3.31916c0,0 -2.24909,9.72687 -2.64401,11.42974c-0.35811,1.55074 -0.41171,3.25512 -0.36135,4.69552c0.15048,1.29219 1.4021,2.34445 2.48792,0.9269c0.76334,-1.24559 1.58411,-2.81858 2.00878,-4.39518c0.25327,-0.93291 1.44599,-5.76552 1.44599,-5.76552c0.71475,1.39019 2.80127,2.61443 5.01943,2.61443z"/>
 </g>
</svg>